# xmcd CD database file
#
# Track frame offsets:
#	150
#	23234
#	53531
#	70211
#	89377
#	109526
#	126413
#	148900
#	163405
#	179834
#	204943
#	232544
#	253146
#	276645
#	295787
#
# Disc length: 4369 seconds
#
# Revision: 0
# Processed by: cddbd v1.5.2PL0 Copyright (c) Steve Scherf et al.
# Submitted via: CDex 1.51
#
DISCID=e4110f0f
DTITLE=Various Artist - Salsa Dance Hits CD1 - The Legendary Fania Recordings
DYEAR=2007
DGENRE=Salsa
TTITLE0=Ray Barretto - Acid
TTITLE1=Charlie Palmieri - Coco
TTITLE2=Tito Allen - Festival De Soneros
TTITLE3=Vitin Aviles - Compay Salsa
TTITLE4=Azuquita - Salsa Na' Ma'
TTITLE5=Justo Betancourt - Pa' Bravo Yo
TTITLE6=Willie Colon - Tiempo Pa' Matar
TTITLE7=Cabrerita - Sobre Salsa
TTITLE8=Angel Canales - El Cantate Y La Orchestra
TTITLE9=Orlando Watussi - Ustedes Mi Rumba Y Yo
TTITLE10=Julio Castro Y Orquesta La Masacre - Jibarita
TTITLE11=Fuego '77 - En Nueva York
TTITLE12=Pete 'El Conde' Rodriguez - Catalina La O
TTITLE13=Tito Puente - Que Bueno Baila Usted
TTITLE14=Eddie Palmieri - Vamonos Pa'l Monte
EXTD=YEAR: 2007
EXTT0=
EXTT1=
EXTT2=
EXTT3=
EXTT4=
EXTT5=
EXTT6=
EXTT7=
EXTT8=
EXTT9=
EXTT10=
EXTT11=
EXTT12=
EXTT13=
EXTT14=
PLAYORDER=
